<?xml version="1.0" encoding="UTF-8"?>
<svg id="Capa_2" data-name="Capa 2" xmlns="http://www.w3.org/2000/svg" viewBox="0 0 1366 410">
  <defs>
    <style>
      .cls-1 {
        fill: #d84f33;
      }

      .cls-1, .cls-2, .cls-3 {
        stroke-width: 0px;
      }

      .cls-4 {
        fill: none;
        stroke: #d84f33;
        stroke-linecap: round;
        stroke-miterlimit: 10;
        stroke-width: 32.82px;
      }

      .cls-2 {
        fill: #f2613f;
      }

      .cls-3 {
        fill: #f58165;
      }
    </style>
  </defs>
  <g id="Capa_1-2" data-name="Capa 1">
    <g>
      <polygon class="cls-1" points="79.57 410 184.93 410 132.25 357.32 79.57 410"/>
      <rect class="cls-2" x="37" y="179" width="74.5" height="74.5"/>
      <path class="cls-2" d="M22.6,337.02c16.74,0,30.35-13.62,30.35-30.35s-13.62-30.35-30.35-30.35c-8.97,0-17.04,3.91-22.6,10.12v40.46c5.56,6.21,13.63,10.12,22.6,10.12ZM22.6,291.81c8.19,0,14.85,6.66,14.85,14.85s-6.66,14.85-14.85,14.85-14.85-6.66-14.85-14.85,6.66-14.85,14.85-14.85Z"/>
      <path class="cls-1" d="M78.66,7.02c0-2.37-.14-4.71-.39-7.02h-33.23c.52,2.26.8,4.61.8,7.02,0,17.35-14.11,31.46-31.46,31.46-5.18,0-10.07-1.27-14.38-3.49v34.68c4.63,1.06,9.44,1.64,14.38,1.64,35.44,0,64.28-28.84,64.28-64.28Z"/>
      <path class="cls-1" d="M964.38,49.3c30.29,0,55.73-21.06,62.5-49.3h-34.84c-5.33,9.81-15.73,16.48-27.65,16.48s-22.32-6.67-27.66-16.48h-34.84c6.77,28.24,32.21,49.3,62.5,49.3Z"/>
      <g>
        <line class="cls-4" x1="1266" y1="279" x2="1266" y2="335"/>
        <line class="cls-4" x1="1218" y1="255" x2="1218" y2="359"/>
        <line class="cls-4" x1="1170" y1="279" x2="1170" y2="335"/>
      </g>
      <polygon class="cls-3" points="1104 101.05 1137.82 42.47 1070.18 42.47 1104 101.05"/>
      <polygon class="cls-2" points="1318.39 0 1308.73 36.06 1338.94 66.27 1366 59.02 1366 0 1318.39 0"/>
      <polygon class="cls-1" points="1351.06 156.73 1309.79 167.79 1298.73 209.06 1328.94 239.27 1366 229.34 1366 171.67 1351.06 156.73"/>
    </g>
  </g>
</svg>